<svg id="visual" viewBox="0 0 450 900" width="450" height="900" xmlns="http://www.w3.org/2000/svg" xmlns:xlink="http://www.w3.org/1999/xlink" version="1.1"><path d="M436 900L436 883.3C436 866.7 436 833.3 433.7 800C431.3 766.7 426.7 733.3 425.2 700C423.7 666.7 425.3 633.3 426.2 600C427 566.7 427 533.3 427 500C427 466.7 427 433.3 426.2 400C425.3 366.7 423.7 333.3 423.7 300C423.7 266.7 425.3 233.3 426.8 200C428.3 166.7 429.7 133.3 430.3 100C431 66.7 431 33.3 431 16.7L431 0L450 0L450 16.7C450 33.3 450 66.7 450 100C450 133.3 450 166.7 450 200C450 233.3 450 266.7 450 300C450 333.3 450 366.7 450 400C450 433.3 450 466.7 450 500C450 533.3 450 566.7 450 600C450 633.3 450 666.7 450 700C450 733.3 450 766.7 450 800C450 833.3 450 866.7 450 883.3L450 900Z" fill="#d2e2ff"></path><path d="M418 900L418.7 883.3C419.3 866.7 420.7 833.3 417.7 800C414.7 766.7 407.3 733.3 405.2 700C403 666.7 406 633.3 407.5 600C409 566.7 409 533.3 408.2 500C407.3 466.7 405.7 433.3 404.2 400C402.7 366.7 401.3 333.3 401.3 300C401.3 266.7 402.7 233.3 404.8 200C407 166.7 410 133.3 413 100C416 66.7 419 33.3 420.5 16.7L422 0L432 0L432 16.7C432 33.3 432 66.7 431.3 100C430.7 133.3 429.3 166.7 427.8 200C426.3 233.3 424.7 266.7 424.7 300C424.7 333.3 426.3 366.7 427.2 400C428 433.3 428 466.7 428 500C428 533.3 428 566.7 427.2 600C426.3 633.3 424.7 666.7 426.2 700C427.7 733.3 432.3 766.7 434.7 800C437 833.3 437 866.7 437 883.3L437 900Z" fill="#b3ceff"></path><path d="M395 900L391.3 883.3C387.7 866.7 380.3 833.3 377.3 800C374.3 766.7 375.7 733.3 373.3 700C371 666.7 365 633.3 361.3 600C357.7 566.7 356.3 533.3 355.7 500C355 466.7 355 433.3 354.2 400C353.3 366.7 351.7 333.3 354.7 300C357.7 266.7 365.3 233.3 371.3 200C377.3 166.7 381.7 133.3 385.3 100C389 66.7 392 33.3 393.5 16.7L395 0L423 0L421.5 16.7C420 33.3 417 66.7 414 100C411 133.3 408 166.7 405.8 200C403.7 233.3 402.3 266.7 402.3 300C402.3 333.3 403.7 366.7 405.2 400C406.7 433.3 408.3 466.7 409.2 500C410 533.3 410 566.7 408.5 600C407 633.3 404 666.7 406.2 700C408.3 733.3 415.7 766.7 418.7 800C421.7 833.3 420.3 866.7 419.7 883.3L419 900Z" fill="#95b9ff"></path><path d="M310 900L314.5 883.3C319 866.7 328 833.3 328.7 800C329.3 766.7 321.7 733.3 318.7 700C315.7 666.7 317.3 633.3 318.8 600C320.3 566.7 321.7 533.3 323.8 500C326 466.7 329 433.3 324.5 400C320 366.7 308 333.3 301.3 300C294.7 266.7 293.3 233.3 297.2 200C301 166.7 310 133.3 314.5 100C319 66.7 319 33.3 319 16.7L319 0L396 0L394.5 16.7C393 33.3 390 66.7 386.3 100C382.7 133.3 378.3 166.7 372.3 200C366.3 233.3 358.7 266.7 355.7 300C352.7 333.3 354.3 366.7 355.2 400C356 433.3 356 466.7 356.7 500C357.3 533.3 358.7 566.7 362.3 600C366 633.3 372 666.7 374.3 700C376.7 733.3 375.3 766.7 378.3 800C381.3 833.3 388.7 866.7 392.3 883.3L396 900Z" fill="#76a4ff"></path><path d="M269 900L271.3 883.3C273.7 866.7 278.3 833.3 267.8 800C257.3 766.7 231.7 733.3 219.7 700C207.7 666.7 209.3 633.3 204.8 600C200.3 566.7 189.7 533.3 201.7 500C213.7 466.7 248.3 433.3 255.8 400C263.3 366.7 243.7 333.3 234.7 300C225.7 266.7 227.3 233.3 230.3 200C233.3 166.7 237.7 133.3 236.2 100C234.7 66.7 227.3 33.3 223.7 16.7L220 0L320 0L320 16.7C320 33.3 320 66.7 315.5 100C311 133.3 302 166.7 298.2 200C294.3 233.3 295.7 266.7 302.3 300C309 333.3 321 366.7 325.5 400C330 433.3 327 466.7 324.8 500C322.7 533.3 321.3 566.7 319.8 600C318.3 633.3 316.7 666.7 319.7 700C322.7 733.3 330.3 766.7 329.7 800C329 833.3 320 866.7 315.5 883.3L311 900Z" fill="#558fff"></path><path d="M220 900L227.5 883.3C235 866.7 250 833.3 241 800C232 766.7 199 733.3 186.2 700C173.3 666.7 180.7 633.3 177.5 600C174.3 566.7 160.7 533.3 169 500C177.3 466.7 207.7 433.3 212.3 400C217 366.7 196 333.3 188.5 300C181 266.7 187 233.3 193 200C199 166.7 205 133.3 204.2 100C203.3 66.7 195.7 33.3 191.8 16.7L188 0L221 0L224.7 16.7C228.3 33.3 235.7 66.7 237.2 100C238.7 133.3 234.3 166.7 231.3 200C228.3 233.3 226.7 266.7 235.7 300C244.7 333.3 264.3 366.7 256.8 400C249.3 433.3 214.7 466.7 202.7 500C190.7 533.3 201.3 566.7 205.8 600C210.3 633.3 208.7 666.7 220.7 700C232.7 733.3 258.3 766.7 268.8 800C279.3 833.3 274.7 866.7 272.3 883.3L270 900Z" fill="#4686ff"></path><path d="M193 900L199.7 883.3C206.3 866.7 219.7 833.3 209.8 800C200 766.7 167 733.3 156.5 700C146 666.7 158 633.3 158.8 600C159.7 566.7 149.3 533.3 159.2 500C169 466.7 199 433.3 202.7 400C206.3 366.7 183.7 333.3 172.3 300C161 266.7 161 233.3 164 200C167 166.7 173 133.3 175.3 100C177.7 66.7 176.3 33.3 175.7 16.7L175 0L189 0L192.8 16.7C196.7 33.3 204.3 66.7 205.2 100C206 133.3 200 166.7 194 200C188 233.3 182 266.7 189.5 300C197 333.3 218 366.7 213.3 400C208.7 433.3 178.3 466.7 170 500C161.7 533.3 175.3 566.7 178.5 600C181.7 633.3 174.3 666.7 187.2 700C200 733.3 233 766.7 242 800C251 833.3 236 866.7 228.5 883.3L221 900Z" fill="#4686ff"></path><path d="M184 900L186.2 883.3C188.3 866.7 192.7 833.3 179.8 800C167 766.7 137 733.3 130.3 700C123.7 666.7 140.3 633.3 143.3 600C146.3 566.7 135.7 533.3 144.7 500C153.7 466.7 182.3 433.3 185.3 400C188.3 366.7 165.7 333.3 152.8 300C140 266.7 137 233.3 140 200C143 166.7 152 133.3 155 100C158 66.7 155 33.3 153.5 16.7L152 0L176 0L176.7 16.7C177.3 33.3 178.7 66.7 176.3 100C174 133.3 168 166.7 165 200C162 233.3 162 266.7 173.3 300C184.7 333.3 207.3 366.7 203.7 400C200 433.3 170 466.7 160.2 500C150.3 533.3 160.7 566.7 159.8 600C159 633.3 147 666.7 157.5 700C168 733.3 201 766.7 210.8 800C220.7 833.3 207.3 866.7 200.7 883.3L194 900Z" fill="#558fff"></path><path d="M166 900L168.2 883.3C170.3 866.7 174.7 833.3 159.7 800C144.7 766.7 110.3 733.3 99.8 700C89.3 666.7 102.7 633.3 103.3 600C104 566.7 92 533.3 102.5 500C113 466.7 146 433.3 153.5 400C161 366.7 143 333.3 133.3 300C123.7 266.7 122.3 233.3 123.8 200C125.3 166.7 129.7 133.3 129.7 100C129.7 66.7 125.3 33.3 123.2 16.7L121 0L153 0L154.5 16.7C156 33.3 159 66.7 156 100C153 133.3 144 166.7 141 200C138 233.3 141 266.7 153.8 300C166.7 333.3 189.3 366.7 186.3 400C183.3 433.3 154.7 466.7 145.7 500C136.7 533.3 147.3 566.7 144.3 600C141.3 633.3 124.7 666.7 131.3 700C138 733.3 168 766.7 180.8 800C193.7 833.3 189.3 866.7 187.2 883.3L185 900Z" fill="#76a4ff"></path><path d="M147 900L150.8 883.3C154.7 866.7 162.3 833.3 148.2 800C134 766.7 98 733.3 86.7 700C75.3 666.7 88.7 633.3 89.5 600C90.3 566.7 78.7 533.3 87.8 500C97 466.7 127 433.3 132.2 400C137.3 366.7 117.7 333.3 109.3 300C101 266.7 104 233.3 105.5 200C107 166.7 107 133.3 107 100C107 66.7 107 33.3 107 16.7L107 0L122 0L124.2 16.7C126.3 33.3 130.7 66.7 130.7 100C130.7 133.3 126.3 166.7 124.8 200C123.3 233.3 124.7 266.7 134.3 300C144 333.3 162 366.7 154.5 400C147 433.3 114 466.7 103.5 500C93 533.3 105 566.7 104.3 600C103.7 633.3 90.3 666.7 100.8 700C111.3 733.3 145.7 766.7 160.7 800C175.7 833.3 171.3 866.7 169.2 883.3L167 900Z" fill="#95b9ff"></path><path d="M116 900L120.5 883.3C125 866.7 134 833.3 122.7 800C111.3 766.7 79.7 733.3 70.7 700C61.7 666.7 75.3 633.3 76.2 600C77 566.7 65 533.3 73.3 500C81.7 466.7 110.3 433.3 115.5 400C120.7 366.7 102.3 333.3 94.7 300C87 266.7 90 233.3 87.8 200C85.7 166.7 78.3 133.3 74.7 100C71 66.7 71 33.3 71 16.7L71 0L108 0L108 16.7C108 33.3 108 66.7 108 100C108 133.3 108 166.7 106.5 200C105 233.3 102 266.7 110.3 300C118.7 333.3 138.3 366.7 133.2 400C128 433.3 98 466.7 88.8 500C79.7 533.3 91.3 566.7 90.5 600C89.7 633.3 76.3 666.7 87.7 700C99 733.3 135 766.7 149.2 800C163.3 833.3 155.7 866.7 151.8 883.3L148 900Z" fill="#b3ceff"></path><path d="M0 900L0 883.3C0 866.7 0 833.3 0 800C0 766.7 0 733.3 0 700C0 666.7 0 633.3 0 600C0 566.7 0 533.3 0 500C0 466.7 0 433.3 0 400C0 366.7 0 333.3 0 300C0 266.7 0 233.3 0 200C0 166.7 0 133.3 0 100C0 66.7 0 33.3 0 16.7L0 0L72 0L72 16.7C72 33.3 72 66.7 75.7 100C79.3 133.3 86.7 166.7 88.8 200C91 233.3 88 266.7 95.7 300C103.3 333.3 121.7 366.7 116.5 400C111.3 433.3 82.7 466.7 74.3 500C66 533.3 78 566.7 77.2 600C76.3 633.3 62.7 666.7 71.7 700C80.7 733.3 112.3 766.7 123.7 800C135 833.3 126 866.7 121.5 883.3L117 900Z" fill="#d2e2ff"></path></svg>